<svg width="35" height="35" viewBox="1 -2 40 30" fill="none" xmlns="http://www.w3.org/2000/svg">
<g filter="url(#filter0_d_252_567)">
<mask id="path-1-inside-1_252_567" fill="white">
<path fill-rule="evenodd" clip-rule="evenodd" d="M19.6153 0H17.3846V12.4615H4V14.5384H17.3846V27H19.6153V14.5384H33V12.4615H19.6153V0Z"/>
</mask>
<path fill-rule="evenodd" clip-rule="evenodd" d="M19.6153 0H17.3846V12.4615H4V14.5384H17.3846V27H19.6153V14.5384H33V12.4615H19.6153V0Z" fill="white"/>
<path d="M17.3846 0V-0.05H17.3346V0H17.3846ZM19.6153 0H19.6653V-0.05H19.6153V0ZM17.3846 12.4615V12.5115H17.4346V12.4615H17.3846ZM4 12.4615V12.4115H3.95V12.4615H4ZM4 14.5384H3.95V14.5884H4V14.5384ZM17.3846 14.5384H17.4346V14.4884H17.3846V14.5384ZM17.3846 27H17.3346V27.05H17.3846V27ZM19.6153 27V27.05H19.6653V27H19.6153ZM19.6153 14.5384V14.4884H19.5653V14.5384H19.6153ZM33 14.5384V14.5884H33.05V14.5384H33ZM33 12.4615H33.05V12.4115H33V12.4615ZM19.6153 12.4615H19.5653V12.5115H19.6153V12.4615ZM17.3846 0.05H19.6153V-0.05H17.3846V0.05ZM17.4346 12.4615V0H17.3346V12.4615H17.4346ZM4 12.5115H17.3846V12.4115H4V12.5115ZM4.05 14.5384V12.4615H3.95V14.5384H4.05ZM17.3846 14.4884H4V14.5884H17.3846V14.4884ZM17.4346 27V14.5384H17.3346V27H17.4346ZM19.6153 26.95H17.3846V27.05H19.6153V26.95ZM19.5653 14.5384V27H19.6653V14.5384H19.5653ZM33 14.4884H19.6153V14.5884H33V14.4884ZM32.95 12.4615V14.5384H33.05V12.4615H32.95ZM19.6153 12.5115H33V12.4115H19.6153V12.5115ZM19.5653 0V12.4615H19.6653V0H19.5653Z" fill="black" mask="url(#path-1-inside-1_252_567)"/>
</g>
<defs>
<filter id="filter0_d_252_567" x="0" y="0" width="37" height="35" filterUnits="userSpaceOnUse" color-interpolation-filters="sRGB">
<feFlood flood-opacity="0" result="BackgroundImageFix"/>
<feColorMatrix in="SourceAlpha" type="matrix" values="0 0 0 0 0 0 0 0 0 0 0 0 0 0 0 0 0 0 127 0" result="hardAlpha"/>
<feOffset dy="4"/>
<feGaussianBlur stdDeviation="2"/>
<feComposite in2="hardAlpha" operator="out"/>
<feColorMatrix type="matrix" values="0 0 0 0 0 0 0 0 0 0 0 0 0 0 0 0 0 0 0.25 0"/>
<feBlend mode="normal" in2="BackgroundImageFix" result="effect1_dropShadow_252_567"/>
<feBlend mode="normal" in="SourceGraphic" in2="effect1_dropShadow_252_567" result="shape"/>
</filter>
</defs>
</svg>
